<svg width="24" height="24" viewBox="0 0 24 24" fill="none" xmlns="http://www.w3.org/2000/svg">
<path opacity="0.2" d="M20.25 11.2501V20.2501H3.75V11.2501C3.74992 11.1516 3.76926 11.054 3.8069 10.963C3.84454 10.8719 3.89975 10.7892 3.96938 10.7195L11.4694 3.21948C11.539 3.14974 11.6217 3.09443 11.7128 3.05668C11.8038 3.01894 11.9014 2.99951 12 2.99951C12.0986 2.99951 12.1962 3.01894 12.2872 3.05668C12.3783 3.09443 12.461 3.14974 12.5306 3.21948L20.0306 10.7195C20.1003 10.7892 20.1555 10.8719 20.1931 10.963C20.2307 11.054 20.2501 11.1516 20.25 11.2501Z" fill="#2A60DF"/>
<path d="M20.5603 10.1887L13.0603 2.68875C12.779 2.40766 12.3977 2.24976 12 2.24976C11.6024 2.24976 11.221 2.40766 10.9397 2.68875L3.4397 10.1887C3.29973 10.3277 3.18878 10.493 3.1133 10.6752C3.03782 10.8574 2.99931 11.0528 3.00001 11.25V20.25C3.00001 20.4489 3.07903 20.6397 3.21968 20.7803C3.36033 20.921 3.5511 21 3.75001 21H20.25C20.4489 21 20.6397 20.921 20.7803 20.7803C20.921 20.6397 21 20.4489 21 20.25V11.25C21.0007 11.0528 20.9622 10.8574 20.8867 10.6752C20.8112 10.493 20.7003 10.3277 20.5603 10.1887ZM19.5 19.5H4.50001V11.25L12 3.75L19.5 11.25V19.5Z" fill="#2A60DF"/>
</svg>
